<svg xmlns="http://www.w3.org/2000/svg" width="450" height="180" viewBox="0 0 450 180" role="img" aria-labelledby="cardTitle cardDesc">
  <title id="cardTitle">webtools.servertools</title>
  <desc id="cardDesc">Eclipse Web Tools Platform Project project repository (webtools.servertools), written in Java, 0 stars, 11 forks</desc>
  <style>
    .title { font-family: 'Courier New', Courier, monospace; font-size: 18px; font-weight: bold; fill: #24292f; }
    .stat { font-family: 'Courier New', Courier, monospace; font-size: 14px; fill: #24292f; font-weight: bold; }
    .icon { fill: #24292f; }
    .repo-icon { fill: #24292f; }
    /* Snappy, stepped motion to match the hard-edged monospace aesthetic. Start
       states live only in the keyframes (+ fill-mode `both`), so a renderer that
       ignores animations still shows everything at full opacity/scale. */
    @keyframes fadeIn { from { opacity: 0; } to { opacity: 1; } }
    @keyframes scaleIn { from { transform: scale(0); } to { transform: scale(1); } }
    .fade-in { animation: fadeIn 0.4s steps(2, end) both; }
    .scale-in { animation: scaleIn 0.3s steps(3, end) both; transform-box: fill-box; transform-origin: center; }
  </style>

  <rect x="2" y="2" rx="0" ry="0" width="446" height="176" fill="#ffffff" stroke="#24292f" stroke-width="4" stroke-dasharray="8 4" />

  <g class="fade-in" transform="translate(35, 25)">
    <svg class="repo-icon" viewBox="0 0 16 16" width="16" height="16"><path d="M2 2.5A2.5 2.5 0 0 1 4.5 0h8.75a.75.75 0 0 1 .75.75v12.5a.75.75 0 0 1-.75.75h-2.5a.75.75 0 0 1 0-1.5h1.75v-2h-8a1 1 0 0 0-.714 1.7.75.75 0 1 1-1.072 1.05A2.495 2.495 0 0 1 2 11.5Zm10.5-1h-8a1 1 0 0 0-1 1v6.708A2.486 2.486 0 0 1 4.5 9h8ZM5 12.25a.25.25 0 0 1 .25-.25h3.5a.25.25 0 0 1 .25.25v3.25a.25.25 0 0 1-.4.2l-1.45-1.087a.249.249 0 0 0-.3 0L5.4 15.7a.25.25 0 0 1-.4-.2Z"></path></svg>
  </g>

  <text x="60" y="38" class="title fade-in">webtools.servertools</text>

  <text x="35" y="65" class="fade-in" style="animation-delay: 0.10s" font-family="'Courier New', Courier, monospace" font-size="14" fill="#24292f">Eclipse Web Tools Platform Project project</text>
  <text x="35" y="87" class="fade-in" style="animation-delay: 0.20s" font-family="'Courier New', Courier, monospace" font-size="14" fill="#24292f">repository (webtools.servertools)</text>
  <text x="35" y="109" class="fade-in" style="animation-delay: 0.30s" font-family="'Courier New', Courier, monospace" font-size="14" fill="#24292f"></text>

  <g transform="translate(35, 140)">
    <g class="scale-in" style="animation-delay: 0.20s">
      <rect x="0" y="0" width="12" height="12" fill="#b07219" stroke="#24292f" stroke-width="2" />
      <text x="18" y="10" class="stat">Java</text>
    </g>
    <g transform="translate(110, -2)">
      <g class="scale-in" style="animation-delay: 0.30s">
        <svg class="icon" viewBox="0 0 16 16" width="16" height="16"><path d="M8 .25a.75.75 0 0 1 .673.418l1.882 3.815 4.21.612a.75.75 0 0 1 .416 1.279l-3.046 2.97.719 4.192a.751.751 0 0 1-1.088.791L8 12.347l-3.766 1.98a.75.75 0 0 1-1.088-.79l.72-4.194L.818 6.374a.75.75 0 0 1 .416-1.28l4.21-.611L7.327.668A.75.75 0 0 1 8 .25Z"></path></svg>
        <text x="22" y="12" class="stat">0</text>
      </g>
    </g>
    <g transform="translate(200, -2)">
      <g class="scale-in" style="animation-delay: 0.40s">
        <svg class="icon" viewBox="0 0 16 16" width="16" height="16"><path d="M5 5.372v.878c0 .414.336.75.75.75h4.5a.75.75 0 0 0 .75-.75v-.878a2.25 2.25 0 1 1 1.5 0v.878a2.25 2.25 0 0 1-2.25 2.25h-1.5v2.128a2.251 2.251 0 1 1-1.5 0V8.5h-1.5A2.25 2.25 0 0 1 3.5 6.25v-.878a2.25 2.25 0 1 1 1.5 0ZM5 3.25a.75.75 0 1 0-1.5 0 .75.75 0 0 0 1.5 0Zm6.75.75a.75.75 0 1 0 0-1.5.75.75 0 0 0 0 1.5Zm-3 8.75a.75.75 0 1 0-1.5 0 .75.75 0 0 0 1.5 0Z"></path></svg>
        <text x="22" y="12" class="stat">11</text>
      </g>
    </g>
  </g>
</svg>
